Coordinates
version=1
nRows=13
nColumns=40
inDegrees=yes

Units are S.I. units (second, meters, Newtons, ...)
If the header above contains a line with 'inDegrees', this indicates whether rotational values are in degrees (yes) or radians (no).

endheader
time	pelvis_tilt	pelvis_list	pelvis_rotation	pelvis_tx	pelvis_ty	pelvis_tz	hip_flexion_r	hip_adduction_r	hip_rotation_r	knee_angle_r	knee_angle_r_beta	ankle_angle_r	subtalar_angle_r	mtp_angle_r	hip_flexion_l	hip_adduction_l	hip_rotation_l	knee_angle_l	knee_angle_l_beta	ankle_angle_l	subtalar_angle_l	mtp_angle_l	lumbar_extension	lumbar_bending	lumbar_rotation	arm_flex_r	arm_add_r	arm_rot_r	elbow_flex_r	pro_sup_r	wrist_flex_r	wrist_dev_r	arm_flex_l	arm_add_l	arm_rot_l	elbow_flex_l	pro_sup_l	wrist_flex_l	wrist_dev_l
      2.29500000	    -30.79239990	     14.44787594	      4.62010346	      0.13218363	      0.84056747	     -1.18756113	     53.58395691	    -40.49782502	    -18.11463629	     26.48968115	      0.46233215	     -5.11745866	     -0.95723910	      0.00000000	     42.22734181	     -8.34159925	    -33.27757636	     16.30675884	      0.28460663	    -10.94370190	     10.50730155	      0.00000000	      0.00000000	      0.00000000	      0.00000000	     44.36446453	    -16.58718848	     44.36446453	     75.02452856	     44.96916073	      0.00000000	      0.00000000	     44.36446453	    -16.58718848	     44.36446453	     75.02452856	     44.96916073	      0.00000000	      0.00000000
      2.30000000	    -30.81894941	     14.36725488	      4.68155137	      0.13165402	      0.84026138	     -1.18783757	     53.72803042	    -40.49496047	    -17.95251424	     26.67139546	      0.46550367	     -5.14784811	     -1.16571586	      0.00000000	     42.44638767	     -8.45172325	    -33.18742415	     16.57822387	      0.28934459	    -10.92037337	     10.44157371	      0.00000000	      0.00000000	      0.00000000	      0.00000000	     44.36821102	    -16.57258417	     44.36821102	     75.02414094	     44.97013906	      0.00000000	      0.00000000	     44.36821102	    -16.57258417	     44.36821102	     75.02414094	     44.97013906	      0.00000000	      0.00000000
      2.30500000	    -31.21479289	     14.14864524	      4.89369585	      0.13070275	      0.83931393	     -1.18846310	     54.22060674	    -40.45810666	    -17.82302238	     26.89217412	      0.46935698	     -5.27534008	     -1.48948994	      0.00000000	     43.16745963	     -8.60427049	    -32.79931556	     16.95066179	      0.29584486	    -10.87482691	     10.18573370	      0.00000000	      0.00000000	      0.00000000	      0.00000000	     44.37327825	    -16.55257842	     44.37327825	     75.02359383	     44.97165831	      0.00000000	      0.00000000	     44.37327825	    -16.55257842	     44.37327825	     75.02359383	     44.97165831	      0.00000000	      0.00000000
      2.31000000	    -31.26596278	     13.99874428	      4.91961002	      0.13013741	      0.83890743	     -1.18865019	     54.38721111	    -40.37406061	    -17.68351368	     27.10056960	      0.47299417	     -5.31825587	     -1.68195785	      0.00000000	     43.44424097	     -8.83140178	    -32.73813931	     17.28667067	      0.30170932	    -10.78345014	     10.23942443	      0.00000000	      0.00000000	      0.00000000	      0.00000000	     44.37647140	    -16.54025116	     44.37647140	     75.02327378	     44.97241187	      0.00000000	      0.00000000	     44.37647140	    -16.54025116	     44.37647140	     75.02327378	     44.97241187	      0.00000000	      0.00000000
      2.31500000	    -31.86018521	     13.61879802	      5.17220495	      0.12886318	      0.83751736	     -1.18938155	     55.03514961	    -40.21473199	    -17.62538768	     27.32585119	      0.47692607	     -5.50763452	     -2.16203931	      0.00000000	     44.51234601	     -9.14435949	    -32.22970284	     17.84735373	      0.31149509	    -10.67389893	      9.90653996	      0.00000000	      0.00000000	      0.00000000	      0.00000000	     44.38125759	    -16.52147793	     44.38125759	     75.02276743	     44.97376710	      0.00000000	      0.00000000	     44.38125759	    -16.52147793	     44.38125759	     75.02276743	     44.97376710	      0.00000000	      0.00000000
      2.32000000	    -31.90983542	     13.45554886	      5.21454722	      0.12822194	      0.83701144	     -1.18957713	     55.20725587	    -40.14329286	    -17.48887657	     27.57122662	      0.48120868	     -5.53331285	     -2.34831801	      0.00000000	     44.82129522	     -9.37866641	    -32.11646108	     18.21797692	      0.31796368	    -10.56190403	      9.96325805	      0.00000000	      0.00000000	      0.00000000	      0.00000000	     44.38440722	    -16.50936346	     44.38440722	     75.02245528	     44.97448820	      0.00000000	      0.00000000	     44.38440722	    -16.50936346	     44.38440722	     75.02245528	     44.97448820	      0.00000000	      0.00000000
      2.32500000	    -32.53741452	     13.01338360	      5.49689429	      0.12685988	      0.83539484	     -1.19036927	     55.88085799	    -40.00232826	    -17.52785334	     27.86350720	      0.48630994	     -5.64927097	     -2.75040637	      0.00000000	     46.00793232	     -9.73756712	    -31.55455912	     18.88729300	      0.32964545	    -10.41751220	      9.61541106	      0.00000000	      0.00000000	      0.00000000	      0.00000000	     44.38936079	    -16.48997285	     44.38936079	     75.02193465	     44.97586042	      0.00000000	      0.00000000	     44.38936079	    -16.48997285	     44.38936079	     75.02193465	     44.97586042	      0.00000000	      0.00000000
      2.33000000	    -32.40966688	     12.90890885	      5.41068401	      0.12628774	      0.83506255	     -1.19031116	     55.94078681	    -39.90266215	    -17.36041519	     28.12247630	      0.49082981	     -5.53625483	     -2.81823769	      0.00000000	     46.11292202	    -10.00894314	    -31.55489286	     19.28850939	      0.33664800	    -10.26559843	      9.47725185	      0.00000000	      0.00000000	      0.00000000	      0.00000000	     44.39219313	    -16.47920751	     44.39219313	     75.02166495	     44.97642625	      0.00000000	      0.00000000	     44.39219313	    -16.47920751	     44.39219313	     75.02166495	     44.97642625	      0.00000000	      0.00000000
      2.33500000	    -33.17979847	     12.36273999	      5.82276220	      0.12476192	      0.83312319	     -1.19136492	     56.69859556	    -39.79477614	    -17.46457317	     28.44705341	      0.49649474	     -5.78535283	     -3.36285243	      0.00000000	     47.53549305	    -10.34565173	    -30.78503876	     19.97401979	      0.34861241	    -10.16504275	      9.28004143	      0.00000000	      0.00000000	      0.00000000	      0.00000000	     44.39698516	    -16.46059248	     44.39698516	     75.02117349	     44.97766080	      0.00000000	      0.00000000	     44.39698516	    -16.46059248	     44.39698516	     75.02117349	     44.97766080	      0.00000000	      0.00000000
      2.34000000	    -33.04116762	     12.25550909	      5.76407722	      0.12418520	      0.83275565	     -1.19136346	     56.73538308	    -39.71618748	    -17.29304370	     28.70862376	      0.50106001	     -5.68562626	     -3.41522075	      0.00000000	     47.63972562	    -10.59012395	    -30.74137453	     20.36488794	      0.35543435	    -10.04009796	      9.17087877	      0.00000000	      0.00000000	      0.00000000	      0.00000000	     44.39953667	    -16.45093572	     44.39953667	     75.02093378	     44.97815079	      0.00000000	      0.00000000	     44.39953667	    -16.45093572	     44.39953667	     75.02093378	     44.97815079	      0.00000000	      0.00000000
      2.34500000	    -33.76441193	     11.68693919	      6.17443716	      0.12264395	      0.83067394	     -1.19240177	     57.47705667	    -39.65219542	    -17.47803797	     29.13274605	      0.50846234	     -5.83064925	     -3.92091990	      0.00000000	     49.08222300	    -10.94182779	    -29.94730275	     21.15298621	      0.36918926	     -9.84920169	      8.94560840	      0.00000000	      0.00000000	      0.00000000	      0.00000000	     44.40345101	    -16.43577308	     44.40345101	     75.02053604	     44.97912979	      0.00000000	      0.00000000	     44.40345101	    -16.43577308	     44.40345101	     75.02053604	     44.97912979	      0.00000000	      0.00000000
      2.35000000	    -33.61827350	     11.56144979	      6.14178412	      0.12203949	      0.83020975	     -1.19240885	     57.50116772	    -39.58675058	    -17.29580905	     29.42245214	      0.51351866	     -5.74417236	     -3.96732656	      0.00000000	     49.20940558	    -11.18576402	    -29.86377282	     21.55438649	      0.37619501	     -9.76468623	      8.85738613	      0.00000000	      0.00000000	      0.00000000	      0.00000000	     44.40594067	    -16.42637338	     44.40594067	     75.02030401	     44.97959559	      0.00000000	      0.00000000	     44.40594067	    -16.42637338	     44.40594067	     75.02030401	     44.97959559	      0.00000000	      0.00000000
      2.35500000	    -34.51368358	     10.79667313	      6.67531865	      0.12024957	      0.82762066	     -1.19377825	     58.32695715	    -39.55918988	    -17.80601015	     29.92726329	      0.52232928	     -5.79951185	     -4.37720198	      0.00000000	     51.01769765	    -11.56145956	    -28.72384795	     22.47964569	      0.39234383	     -9.56507961	      8.43389052	      0.00000000	      0.00000000	      0.00000000	      0.00000000	     44.41181648	    -16.40360088	     44.41181648	     75.01970617	     44.98106418	      0.00000000	      0.00000000	     44.41181648	    -16.40360088	     44.41181648	     75.01970617	     44.98106418	      0.00000000	      0.00000000
